<svg viewBox="0 0 24 24" xmlns="http://www.w3.org/2000/svg"><path d="M12 1.27a11 11 0 00-3.48 21.46c.55.09.73-.28.73-.55v-1.84c-3.03.64-3.67-1.46-3.67-1.46-.55-1.29-1.28-1.65-1.28-1.65-.92-.65.1-.65.1-.65 1.1 0 1.73 1.1 1.73 1.1.92 1.65 2.57 1.2 3.21.92a2 2 0 01.64-1.47c-2.47-.27-5.04-1.19-5.04-5.5 0-1.1.46-2.1 1.1-2.8a3.7 3.7 0 01.1-2.8s.83-.27 2.75 1.02a10.06 10.06 0 015.5 0c1.91-1.29 2.75-1.02 2.75-1.02.55 1.29.2 2.4.1 2.64.73.73 1.1 1.7 1.1 2.8 0 4.32-2.58 5.23-5.04 5.5.45.37.82.92.82 2.02v3.03c0 .27.18.64.73.55A11 11 0 0012 1.27" fill="#fff"/></svg>