<svg viewBox="0 0 24 24" xmlns="http://www.w3.org/2000/svg"><path d="M4.459 4.208c.746.606 1.026.56 2.428.466l13.215-.793c.28 0 .047-.28-.046-.326L18.09 2.16c-.42-.326-.98-.7-2.055-.607L3.01 2.621c-.466.046-.56.28-.373.466l1.822 1.121zm.793 2.896v13.914c0 .746.373 1.027 1.214.98l14.523-.84c.84-.046.933-.56.933-1.166V6.15c0-.606-.233-.933-.746-.886l-15.177.886c-.56.047-.747.327-.747.933zm14.337.7c.093.42 0 .84-.42.886l-.7.14v10.264c-.606.327-.98.513-1.354.513-.654 0-.84-.187-1.307-.747l-4.57-7.172v6.94l1.307.28s0 .84-.98.84l-2.708.14c-.094-.187 0-.654.327-.7l.84-.233V9.854L7.87 9.76c-.094-.42.14-.98.7-1.027l2.942-.186 4.757 7.265V9.527l-1.12-.14c-.094-.513.28-.886.747-.933l2.893-.186zM2.78 1.321l13.542-.933c1.307-.14 1.633-.047 2.473.56l3.643 2.615c.56.42.747.56.747 1.026v16.21c0 .84-.326 1.307-1.307 1.4l-15.503.886c-.747.047-1.12-.047-1.54-.56L2.11 19.404c-.42-.56-.607-.98-.607-1.493V2.674c0-.653.327-1.26 1.307-1.353h-.03z" fill="#000"/></svg>