<svg viewBox="0 0 24 24" xmlns="http://www.w3.org/2000/svg"><path d="M5.04 15.04a2.53 2.53 0 01-2.53 2.53A2.53 2.53 0 010 15.04a2.53 2.53 0 012.51-2.53h2.53v2.53zm1.27 0a2.53 2.53 0 012.53-2.53 2.53 2.53 0 012.53 2.53v6.33A2.53 2.53 0 018.84 24a2.53 2.53 0 01-2.53-2.53v-6.43z" fill="#E01E5A"/><path d="M8.84 5.04a2.53 2.53 0 01-2.53-2.53A2.53 2.53 0 018.84 0a2.53 2.53 0 012.53 2.51v2.53H8.84zm0 1.27a2.53 2.53 0 012.53 2.53 2.53 2.53 0 01-2.53 2.53H2.51A2.53 2.53 0 010 8.84a2.53 2.53 0 012.51-2.53h6.33z" fill="#36C5F0"/><path d="M18.96 8.84a2.53 2.53 0 012.53-2.53A2.53 2.53 0 0124 8.84a2.53 2.53 0 01-2.51 2.53h-2.53V8.84zm-1.27 0a2.53 2.53 0 01-2.53 2.53 2.53 2.53 0 01-2.53-2.53V2.51A2.53 2.53 0 0115.16 0a2.53 2.53 0 012.53 2.51v6.33z" fill="#2EB67D"/><path d="M15.16 18.96a2.53 2.53 0 012.53 2.53A2.53 2.53 0 0115.16 24a2.53 2.53 0 01-2.53-2.51v-2.53h2.53zm0-1.27a2.53 2.53 0 01-2.53-2.53 2.53 2.53 0 012.53-2.53h6.33A2.53 2.53 0 0124 15.16a2.53 2.53 0 01-2.51 2.53h-6.33z" fill="#ECB22E"/></svg>