<?xml version="1.0" encoding="utf-8"?>
<svg xmlns="http://www.w3.org/2000/svg" fill="none" height="36" viewBox="0 0 130 36" width="130">
<rect height="33" stroke="white" stroke-width="2" width="25" x="1" y="1.5"/>
<rect height="22" stroke="white" stroke-width="2" width="13" x="7" y="7"/>
<path d="M51.456 26.288C52.976 26.288 54.2 25.912 55.128 25.16C56.056 24.408 56.52 23.424 56.52 22.208C56.52 21.264 56.232 20.472 55.656 19.832C55.08 19.176 54.248 18.688 53.16 18.368L51.072 17.744C50.128 17.472 49.656 17.08 49.656 16.568C49.656 16.232 49.784 15.968 50.04 15.776C50.312 15.584 50.68 15.488 51.144 15.488C51.784 15.488 52.352 15.656 52.848 15.992C53.36 16.312 53.712 16.744 53.904 17.288L56.568 16.04C56.168 14.952 55.48 14.112 54.504 13.52C53.544 12.912 52.424 12.608 51.144 12.608C50.168 12.608 49.304 12.784 48.552 13.136C47.8 13.472 47.216 13.944 46.8 14.552C46.384 15.16 46.176 15.872 46.176 16.688C46.176 17.616 46.464 18.424 47.04 19.112C47.616 19.784 48.44 20.272 49.512 20.576L51.744 21.2C52.608 21.44 53.04 21.824 53.04 22.352C53.04 23.136 52.512 23.528 51.456 23.528C50.752 23.528 50.112 23.328 49.536 22.928C48.96 22.528 48.504 21.976 48.168 21.272L45.528 22.52C45.912 23.672 46.632 24.592 47.688 25.28C48.76 25.952 50.016 26.288 51.456 26.288ZM62.7276 26.288C64.3596 26.288 65.6716 25.784 66.6636 24.776V26H70.0236V17.36C70.0236 16.416 69.7836 15.592 69.3036 14.888C68.8396 14.168 68.1836 13.608 67.3356 13.208C66.4876 12.808 65.5116 12.608 64.4076 12.608C63.0156 12.608 61.7916 12.928 60.7356 13.568C59.6956 14.208 58.9836 15.072 58.5996 16.16L61.4796 17.528C61.7036 16.952 62.0556 16.488 62.5356 16.136C63.0316 15.784 63.5996 15.608 64.2396 15.608C64.9116 15.608 65.4396 15.776 65.8236 16.112C66.2236 16.448 66.4236 16.864 66.4236 17.36V17.72L62.7996 18.296C61.2316 18.552 60.0636 19.04 59.2956 19.76C58.5276 20.48 58.1436 21.392 58.1436 22.496C58.1436 23.68 58.5516 24.608 59.3676 25.28C60.1996 25.952 61.3196 26.288 62.7276 26.288ZM61.8636 22.376C61.8636 21.944 61.9996 21.616 62.2716 21.392C62.5436 21.152 62.9356 20.984 63.4476 20.888L66.4236 20.36V20.768C66.4236 21.568 66.1516 22.248 65.6076 22.808C65.0636 23.368 64.3436 23.648 63.4476 23.648C62.9996 23.648 62.6236 23.536 62.3196 23.312C62.0156 23.088 61.8636 22.776 61.8636 22.376ZM76.7198 26.288C78.3518 26.288 79.6638 25.784 80.6558 24.776V26H84.0157V17.36C84.0157 16.416 83.7758 15.592 83.2958 14.888C82.8318 14.168 82.1758 13.608 81.3278 13.208C80.4798 12.808 79.5038 12.608 78.3997 12.608C77.0078 12.608 75.7838 12.928 74.7278 13.568C73.6878 14.208 72.9758 15.072 72.5918 16.16L75.4718 17.528C75.6958 16.952 76.0478 16.488 76.5278 16.136C77.0238 15.784 77.5918 15.608 78.2318 15.608C78.9038 15.608 79.4318 15.776 79.8158 16.112C80.2158 16.448 80.4158 16.864 80.4158 17.36V17.72L76.7918 18.296C75.2238 18.552 74.0558 19.04 73.2878 19.76C72.5197 20.48 72.1357 21.392 72.1357 22.496C72.1357 23.68 72.5438 24.608 73.3598 25.28C74.1918 25.952 75.3118 26.288 76.7198 26.288ZM75.8558 22.376C75.8558 21.944 75.9918 21.616 76.2638 21.392C76.5358 21.152 76.9278 20.984 77.4398 20.888L80.4158 20.36V20.768C80.4158 21.568 80.1438 22.248 79.5998 22.808C79.0558 23.368 78.3358 23.648 77.4398 23.648C76.9918 23.648 76.6158 23.536 76.3118 23.312C76.0078 23.088 75.8558 22.776 75.8558 22.376ZM91.7919 26.288C93.3119 26.288 94.5359 25.912 95.4639 25.16C96.3919 24.408 96.8559 23.424 96.8559 22.208C96.8559 21.264 96.5679 20.472 95.9919 19.832C95.4159 19.176 94.5839 18.688 93.4959 18.368L91.4079 17.744C90.4639 17.472 89.9919 17.08 89.9919 16.568C89.9919 16.232 90.1199 15.968 90.3759 15.776C90.6479 15.584 91.0159 15.488 91.4799 15.488C92.1199 15.488 92.6879 15.656 93.1839 15.992C93.6959 16.312 94.0479 16.744 94.2399 17.288L96.9039 16.04C96.5039 14.952 95.8159 14.112 94.8399 13.52C93.8799 12.912 92.7599 12.608 91.4799 12.608C90.5039 12.608 89.6399 12.784 88.8879 13.136C88.1359 13.472 87.5519 13.944 87.1359 14.552C86.7199 15.16 86.5119 15.872 86.5119 16.688C86.5119 17.616 86.7999 18.424 87.3759 19.112C87.9519 19.784 88.7759 20.272 89.8479 20.576L92.0799 21.2C92.9439 21.44 93.3759 21.824 93.3759 22.352C93.3759 23.136 92.8479 23.528 91.7919 23.528C91.0879 23.528 90.4479 23.328 89.8719 22.928C89.2959 22.528 88.8399 21.976 88.5039 21.272L85.8639 22.52C86.2479 23.672 86.9679 24.592 88.0239 25.28C89.0959 25.952 90.3519 26.288 91.7919 26.288ZM99.0075 30.8H102.608V24.992C103.072 25.424 103.624 25.752 104.264 25.976C104.92 26.184 105.616 26.288 106.352 26.288C107.632 26.288 108.776 25.984 109.784 25.376C110.792 24.768 111.584 23.944 112.16 22.904C112.752 21.864 113.048 20.712 113.048 19.448C113.048 18.168 112.752 17.016 112.16 15.992C111.568 14.952 110.768 14.128 109.76 13.52C108.752 12.912 107.624 12.608 106.376 12.608C104.632 12.608 103.296 13.16 102.368 14.264V12.896H99.0075V30.8ZM105.92 23.048C104.944 23.048 104.144 22.72 103.52 22.064C102.912 21.392 102.608 20.52 102.608 19.448C102.608 18.392 102.912 17.528 103.52 16.856C104.144 16.184 104.944 15.848 105.92 15.848C106.912 15.848 107.728 16.192 108.368 16.88C109.008 17.552 109.328 18.408 109.328 19.448C109.328 20.504 109.008 21.368 108.368 22.04C107.728 22.712 106.912 23.048 105.92 23.048ZM121.66 26.288C122.956 26.288 124.132 25.992 125.188 25.4C126.244 24.808 127.084 24 127.708 22.976C128.348 21.936 128.668 20.76 128.668 19.448C128.668 18.12 128.348 16.944 127.708 15.92C127.084 14.896 126.244 14.088 125.188 13.496C124.132 12.904 122.956 12.608 121.66 12.608C120.364 12.608 119.18 12.904 118.108 13.496C117.052 14.088 116.204 14.896 115.564 15.92C114.94 16.944 114.628 18.12 114.628 19.448C114.628 20.76 114.94 21.936 115.564 22.976C116.204 24 117.052 24.808 118.108 25.4C119.18 25.992 120.364 26.288 121.66 26.288ZM121.66 23.048C120.684 23.048 119.884 22.712 119.26 22.04C118.652 21.368 118.348 20.504 118.348 19.448C118.348 18.408 118.652 17.552 119.26 16.88C119.884 16.192 120.684 15.848 121.66 15.848C122.636 15.848 123.428 16.192 124.036 16.88C124.644 17.552 124.948 18.408 124.948 19.448C124.948 20.504 124.644 21.368 124.036 22.04C123.428 22.712 122.636 23.048 121.66 23.048Z" fill="white"/>
</svg>