<?xml version="1.0" encoding="utf-8"?>
<svg xmlns="http://www.w3.org/2000/svg" fill="none" height="45" viewBox="0 0 93 45" width="93">
<g clip-path="url(#clip0_720_372)">
<path d="M7.22432 4.34601C7.92438 4.59087 8.3085 4.73451 8.73514 4.80978C9.79346 5.0875 10.8094 5.43359 11.8677 5.71132C12.2943 5.78657 12.7633 5.79349 13.2193 5.745C13.7307 5.68355 14.1773 5.34517 14.2265 4.80781C14.2628 4.21507 13.895 3.89232 13.3871 3.71926C11.5898 3.03053 9.76651 2.23105 7.96919 1.54232C7.25614 1.24209 6.50069 1.01022 5.75831 0.833704C3.44951 0.206456 2.13947 1.09779 2.17335 3.48522C2.24876 6.7977 2.55863 10.1136 2.80023 13.3871C2.83224 14.0223 3.16721 14.7033 3.47611 15.2736C3.71673 15.8014 4.1399 16.1112 4.9022 15.874C5.26819 14.4445 5.51041 12.9856 5.50515 11.4677C5.52587 10.0607 5.53361 8.59831 5.77583 7.13936C6.20851 7.73902 6.65417 8.39405 7.14224 8.98072C8.55108 10.7537 9.9175 12.595 11.4665 14.2184C14.6718 17.6735 18.6282 18.8493 23.2343 18.0617C25.697 17.6012 28.0559 16.6977 30.3334 15.6964C31.3466 15.2836 32.3599 14.8708 33.3732 14.4581C35.8428 13.5286 38.341 13.4687 40.8713 14.044C44.9417 14.9594 48.4023 17.011 51.1291 20.1693C53.0554 22.4052 54.6884 24.8852 56.0574 27.4854C56.2591 27.8471 56.2946 28.2478 56.4962 28.6094C56.6719 28.8604 56.9972 29.2515 57.2318 29.255C57.5217 29.2455 58.0495 29.0049 58.1507 28.689C58.3497 28.2918 58.3307 27.7121 58.2268 27.269C58.0321 26.4383 57.6713 25.6466 57.3103 24.8548C55.0863 20.3517 52.1647 16.3627 47.7047 13.7859C44.3255 11.8322 40.7275 10.6892 36.8352 10.7836C34.3923 10.8305 32.1443 11.7081 29.9092 12.641C28.5212 13.2 27.1592 13.8699 25.7583 14.3735C24.5105 14.7829 23.2237 15.0261 21.9241 15.214C19.6015 15.5246 17.4719 14.9139 15.6166 13.4792C14.7703 12.8597 14.0218 12.1588 13.3157 11.3895C11.4966 9.3621 9.72002 7.2664 7.90099 5.23901C7.68297 5.05643 7.56266 4.79251 7.22432 4.34601Z" fill="white"/>
<path d="M32.432 45.144V33.944H30V45.144H32.432ZM36.7882 38.248H39.7003V36.2H36.7882V33.608H34.3403V36.2H33.1562V38.248H34.3403V41.848C34.3403 43.144 34.3403 45.144 36.7882 45.144C39.2202 45.144 39.7003 44.984 39.7003 44.984V42.616C37.3643 42.744 36.7882 42.92 36.7882 41.624V41.432V38.248ZM43.4265 34.744C43.4265 33.608 42.7865 33.016 41.9865 33.016C41.2025 33.016 40.5625 33.656 40.5625 34.456C40.5625 35.192 40.9465 35.784 41.8425 35.672C41.7945 36.088 41.2345 36.488 41.2345 36.488C41.2345 36.488 41.2825 36.68 41.4425 37.304C43.1225 36.712 43.4265 35.384 43.4265 34.744ZM48.143 39.704L47.935 39.688C46.367 39.448 46.095 39.224 46.095 38.824C46.095 38.552 46.383 38.056 47.743 38.056C49.151 38.056 49.759 38.44 49.759 39.144V39.224H52.239V39.144C52.239 37.768 51.455 36.12 47.743 36.12C44.287 36.12 43.567 37.608 43.567 38.856C43.567 40.648 45.167 41.224 47.743 41.56C47.871 41.576 47.999 41.592 48.127 41.608C49.103 41.72 49.967 41.848 49.967 42.52C49.967 43.112 49.039 43.24 48.063 43.24C46.447 43.24 45.871 42.888 45.871 42.12V42.04H43.375V42.216C43.359 42.68 43.359 43.432 43.983 44.056C44.703 44.776 46.095 45.144 48.127 45.144C50.879 45.144 52.479 44.712 52.479 42.488C52.479 40.36 50.175 40.008 48.143 39.704ZM63.3789 35.176C64.3069 35.176 65.6029 35.288 65.6029 35.288V33.224C65.6029 33.224 64.0509 33 62.5149 33C60.6909 33 59.9389 33.592 59.7949 36.168H58.5469V38.168H59.7629V45.144H62.1949V38.168H65.4429V36.168H62.2269C62.2909 35.368 62.5309 35.176 63.3789 35.176ZM71.3871 36.168C69.8351 36.168 69.2911 36.632 68.7791 37.496H68.6351V36.168H66.2031V45.144H68.6351V41.128C68.6351 39.912 69.1631 38.504 70.9711 38.504C71.7391 38.504 72.3631 38.632 72.5871 38.696L72.9711 36.408C72.5551 36.312 72.0271 36.168 71.3871 36.168ZM82.2856 41.224H82.3816C82.5096 39.992 82.3496 38.104 80.6216 36.92V36.936C79.8696 36.408 78.8456 36.088 77.5816 36.088C74.5576 36.088 72.7656 37.688 72.7656 40.616C72.7656 43.608 74.5096 45.144 77.5816 45.144C80.5256 45.144 82.0936 43.96 82.3336 42.024H79.9816C79.7576 42.616 79.0376 43.016 77.5816 43.016C76.0136 43.016 75.2936 42.424 75.1176 41.224H82.2856ZM77.5816 38.216C79.3096 38.216 79.7576 38.952 79.9496 39.624H75.2136C75.5016 38.712 76.2376 38.216 77.5816 38.216ZM92.645 41.224H92.741C92.869 39.992 92.709 38.104 90.981 36.92V36.936C90.229 36.408 89.205 36.088 87.941 36.088C84.917 36.088 83.125 37.688 83.125 40.616C83.125 43.608 84.869 45.144 87.941 45.144C90.885 45.144 92.453 43.96 92.693 42.024H90.341C90.117 42.616 89.397 43.016 87.941 43.016C86.373 43.016 85.653 42.424 85.477 41.224H92.645ZM87.941 38.216C89.669 38.216 90.117 38.952 90.309 39.624H85.573C85.861 38.712 86.597 38.216 87.941 38.216Z" fill="white"/>
</g>
<defs>
<clipPath id="clip0_720_372">
<rect fill="white" height="45" width="93"/>
</clipPath>
</defs>
</svg>