<?xml version="1.0" encoding="utf-8"?>
<svg xmlns="http://www.w3.org/2000/svg" fill="none" height="52" viewBox="0 0 78 52" width="78">
<path clip-rule="evenodd" d="M49 18C50.1046 18 51 17.1046 51 16V2C51 0.895431 50.1046 0 49 0L17 0C15.8954 0 15 0.89543 15 2V13C15 14.1046 14.1046 15 13 15L2 15C0.895432 15 0 15.8954 0 17L0 31C0 32.1046 0.895432 33 2 33H16C17.1046 33 18 32.1046 18 31L18 20C18 18.8954 18.8954 18 20 18L49 18Z" fill="#0A0A0A" fill-rule="evenodd"/>
<path clip-rule="evenodd" d="M29 34C27.8954 34 27 34.8954 27 36L27 50C27 51.1046 27.8954 52 29 52L61 52C62.1046 52 63 51.1046 63 50V39C63 37.8954 63.8954 37 65 37L76 37C77.1046 37 78 36.1046 78 35V21C78 19.8954 77.1046 19 76 19H62C60.8954 19 60 19.8954 60 21L60 32C60 33.1046 59.1046 34 58 34H29Z" fill="#0A0A0A" fill-rule="evenodd"/>
</svg>